<?xml version="1.0" encoding="utf-8"?>
<!DOCTYPE svg PUBLIC "-//W3C//DTD SVG 1.1//EN" "http://www.w3.org/Graphics/SVG/1.1/DTD/svg11.dtd">
<svg version="1.1" id="图形" xmlns="http://www.w3.org/2000/svg" xmlns:xlink="http://www.w3.org/1999/xlink" x="0px" y="0px" width="1024px" height="1024px" viewBox="0 0 1024 1024" enable-background="new 0 0 1024 1024" xml:space="preserve">
  <path fill="#f0f0f0" d="M976.595 182.692l0 23.461c0 38.876-31.512 70.385-70.385 70.385-64.788 0-117.308-52.52-117.308-117.309l0-46.924c0-25.913-21.009-46.923-46.923-46.923l0 46.924 0 46.924c0 52.984 25.112 100.074 64.057 130.104-38.013 19.406-64.057 58.906-64.057 104.513l0 23.462 0 46.923c25.914 0 46.923-21.007 46.923-46.923l0-23.462c0-38.87 31.513-70.386 70.384-70.386 64.788 0 117.31 52.522 117.31 117.308l0 46.925c0 25.915 21.008 46.923 46.924 46.923l0-46.923 0-46.925c0-52.977-25.112-100.07-64.058-130.099 38.014-19.41 64.058-58.906 64.058-104.518l0-23.461 0-46.923C997.603 135.768 976.595 156.777 976.595 182.692zM563.081-28.465c-77.745 0-140.77 63.026-140.77 140.77L422.311 288.269l46.924 0 0-175.964c0-51.827 42.017-93.846 93.846-93.846 51.83 0 93.847 42.02 93.847 93.846L656.928 417.309c0 25.916 21.009 46.923 46.922 46.923l0-46.923 0-305.004C703.851 34.561 640.827-28.465 563.081-28.465zM563.081 335.192l-70.385 0-23.461 0-46.924 0c0 30.867 14.941 58.202 37.942 75.306l-0.735 0.738 89.066 89.065-0.236 0.237c9.053 8.555 14.734 20.642 14.734 34.081 0 25.915-21.009 46.923-46.923 46.923-25.915 0-46.922-21.009-46.922-46.923 0-13.439 5.68-25.525 14.732-34.081l-33.202-33.202c-17.541 17.051-28.455 40.886-28.455 67.282 0 51.83 42.016 93.847 93.848 93.847 51.83 0 93.847-42.017 93.847-93.847 0-24.775-9.694-47.217-25.381-63.989l0.324-0.321-88.19-88.192 66.324 0c0 25.916 21.008 46.923 46.923 46.923l0-46.923 0-46.924-35.192 0L563.081 335.192 563.081 335.192zM328.464 182.692 328.464 452.501c0 25.916-21.008 46.925-46.923 46.925-38.873 0-70.386-31.511-70.386-70.387l0-105.578c0-12.956-10.503-23.461-23.462-23.461-12.958 0-23.461 10.506-23.461 23.461L164.232 429.039c0 25.916-21.008 46.925-46.923 46.925-38.873 0-70.386-31.511-70.386-70.386l0-293.273c0-25.913-21.008-46.923-46.923-46.923l0 46.923L0 405.578c0 64.789 52.521 117.31 117.309 117.31 26.257 0 49.984-10.796 67.017-28.176 21.088 31.157 56.759 51.637 97.215 51.637 51.829 0 93.848-42.017 93.848-93.848l0-269.809 0-26.395 0-20.528C349.472 135.768 328.464 156.777 328.464 182.692z" transform="translate(0, 812) scale(1, -1)"/>
</svg>
